<?xml version="1.0" encoding="UTF-8" standalone="no"?>
<!-- Created with Inkscape (http://www.inkscape.org/) -->

<svg
   width="720"
   height="300"
   viewBox="0 0 190.5 79.375"
   version="1.1"
   id="svg5"
   inkscape:version="1.1 (c68e22c387, 2021-05-23)"
   sodipodi:docname="installer.src.svg"
   xmlns:inkscape="http://www.inkscape.org/namespaces/inkscape"
   xmlns:sodipodi="http://sodipodi.sourceforge.net/DTD/sodipodi-0.dtd"
   xmlns="http://www.w3.org/2000/svg"
   xmlns:svg="http://www.w3.org/2000/svg">
  <sodipodi:namedview
     id="namedview7"
     pagecolor="#000000"
     bordercolor="#00ff00"
     borderopacity="1"
     inkscape:pageshadow="2"
     inkscape:pageopacity="0"
     inkscape:pagecheckerboard="false"
     inkscape:document-units="px"
     showgrid="false"
     units="px"
     inkscape:showpageshadow="false"
     borderlayer="true"
     inkscape:zoom="1.4142136"
     inkscape:cx="715.94562"
     inkscape:cy="417.193"
     inkscape:current-layer="g20389"
     showguides="true"
     inkscape:guide-bbox="true"
     showborder="false"
     fit-margin-top="0"
     fit-margin-left="0"
     fit-margin-right="0"
     fit-margin-bottom="0"
     inkscape:window-width="1920"
     inkscape:window-height="1051"
     inkscape:window-x="1680"
     inkscape:window-y="29"
     inkscape:window-maximized="0">
    <sodipodi:guide
       position="95.25,39.6875"
       orientation="-1,0"
       id="guide20391"
       inkscape:label=""
       inkscape:locked="false"
       inkscape:color="rgb(0,0,255)" />
    <sodipodi:guide
       position="95.25,39.6875"
       orientation="0,1"
       id="guide20393"
       inkscape:label=""
       inkscape:locked="false"
       inkscape:color="rgb(0,0,255)" />
  </sodipodi:namedview>
  <defs
     id="defs2" />
  <g
     inkscape:label="Layer 1"
     inkscape:groupmode="layer"
     id="layer1"
     transform="translate(0,-150.8125)">
    <g
       id="g20389"
       transform="translate(16.632137,-1.5144614)">
      <g
         id="g1129-0-0"
         style="font-size:15.665px;line-height:0.8;font-family:sans-serif;-inkscape-font-specification:sans-serif;text-align:center;letter-spacing:0px;word-spacing:0px;writing-mode:lr-tb;text-anchor:middle;display:inline;fill:#ffffff;stroke:#000000;stroke-width:0.183738px;stroke-linecap:butt;stroke-linejoin:miter;stroke-opacity:1"
         transform="matrix(1.4399999,0,0,1.4399999,-490.38746,44.115769)">
        <g
           id="g963-62-2"
           transform="translate(22.99116,26.318324)"
           style="stroke-width:0.183738px">
          <g
             id="g1010-6-3"
             style="stroke-width:0.183738px"
             transform="matrix(1.0000022,0,0,1.0000022,-7.2568704e-4,-1.4063148e-4)">
            <g
               style="font-size:15.665px;line-height:0.8;font-family:sans-serif;-inkscape-font-specification:sans-serif;text-align:center;letter-spacing:0px;word-spacing:0px;writing-mode:lr-tb;text-anchor:middle;fill:#ffffff;stroke:#000000;stroke-width:0.183738px;stroke-linecap:butt;stroke-linejoin:miter;stroke-opacity:1"
               id="text102-1-7"
               transform="scale(0.96598235,1.0352156)"
               aria-label="Tow- Boot">
              <path
                 id="path38-5"
                 style="font-style:normal;font-variant:normal;font-weight:900;font-stretch:normal;font-family:'Encode Sans Compressed';-inkscape-font-specification:'Encode Sans Compressed Heavy';text-align:end;text-anchor:end;fill:#ffffff;fill-opacity:1;stroke:none;stroke-width:0.183738px"
                 d="m 342.06885,63.995122 h -2.5534 v -2.60039 h 8.17713 v 2.60039 h -2.56906 v 8.99171 h -3.05467 z" />
              <path
                 id="path40-9"
                 style="font-style:normal;font-variant:normal;font-weight:900;font-stretch:normal;font-family:'Encode Sans Compressed';-inkscape-font-specification:'Encode Sans Compressed Heavy';text-align:end;text-anchor:end;fill:#ffffff;fill-opacity:1;stroke:none;stroke-width:0.183738px"
                 d="m 350.96655,73.159147 q -1.95812,0 -2.94502,-1.112215 -0.98689,-1.112215 -0.98689,-3.28965 0,-2.177435 0.98689,-3.273985 0.9869,-1.112215 2.94502,-1.112215 1.95813,0 2.94502,1.112215 0.9869,1.09655 0.9869,3.273985 0,2.177435 -0.9869,3.28965 -0.98689,1.112215 -2.94502,1.112215 z m 0,-2.240095 q 0.3133,0 0.50128,-0.06266 0.18798,-0.07833 0.28197,-0.3133 0.10966,-0.234975 0.14099,-0.65793 0.0313,-0.422955 0.0313,-1.12788 0,-0.704925 -0.0313,-1.12788 -0.0313,-0.422955 -0.14099,-0.642265 -0.094,-0.234975 -0.28197,-0.297635 -0.18798,-0.07833 -0.50128,-0.07833 -0.3133,0 -0.50128,0.07833 -0.18798,0.06266 -0.29763,0.297635 -0.094,0.21931 -0.12532,0.642265 -0.0313,0.422955 -0.0313,1.12788 0,0.704925 0.0313,1.12788 0.0313,0.422955 0.12532,0.65793 0.10965,0.234975 0.29763,0.3133 0.18798,0.06266 0.50128,0.06266 z" />
              <path
                 id="path42-2"
                 style="font-style:normal;font-variant:normal;font-weight:900;font-stretch:normal;font-family:'Encode Sans Compressed';-inkscape-font-specification:'Encode Sans Compressed Heavy';text-align:end;text-anchor:end;fill:#ffffff;fill-opacity:1;stroke:none;stroke-width:0.183738px"
                 d="m 355.36836,64.590392 v -0.06266 h 2.67872 l 0.48561,4.621175 0.094,0.861575 h 0.20365 l 0.10965,-0.861575 0.73626,-4.621175 h 2.86669 l 0.73626,4.621175 0.10965,0.861575 h 0.20365 l 0.094,-0.861575 0.48561,-4.621175 h 2.67872 v 0.06266 l -1.50384,8.39644 h -3.35231 l -0.70493,-4.32354 -0.0783,-0.861575 h -0.20365 l -0.0783,0.861575 -0.70493,4.32354 h -3.35231 z" />
              <path
                 id="path44-2"
                 style="font-style:normal;font-variant:normal;font-weight:900;font-stretch:normal;font-family:'Encode Sans Compressed';-inkscape-font-specification:'Encode Sans Compressed Heavy';text-align:end;text-anchor:end;fill:#ffffff;fill-opacity:1;stroke:none;stroke-width:0.183738px"
                 d="m 367.69671,67.519747 h 5.29477 v 2.16177 h -5.29477 z" />
              <path
                 id="path46-8"
                 style="font-style:normal;font-variant:normal;font-weight:900;font-stretch:normal;font-family:'Encode Sans Compressed';-inkscape-font-specification:'Encode Sans Compressed Heavy';text-align:end;text-anchor:end;fill:#ffffff;fill-opacity:1;stroke:none;stroke-width:0.183738px"
                 d="m 344.7632,86.681713 q -0.75192,0 -1.53517,-0.06266 -0.76758,-0.04699 -1.5195,-0.172315 v -11.43545 q 1.98945,-0.234975 3.30531,-0.234975 2.49074,0 3.61862,0.798915 1.14354,0.798915 1.14354,2.53773 0,1.94246 -1.66049,2.41241 v 0.06266 q 1.94246,0.43862 1.94246,2.72571 0,3.367975 -5.29477,3.367975 z m 0.53261,-2.31842 q 0.79892,0 1.20621,-0.3133 0.42295,-0.3133 0.42295,-0.90857 0,-0.736255 -0.36029,-1.018225 -0.3603,-0.297635 -1.3002,-0.297635 h -0.76758 v 2.47507 q 0.14098,0.03133 0.3133,0.04699 0.17231,0.01566 0.48561,0.01566 z m -0.047,-4.73083 q 0.78325,0 1.08088,-0.28197 0.3133,-0.28197 0.3133,-1.03389 0,-1.22187 -1.28453,-1.22187 -0.17231,0 -0.39162,0.03133 -0.20365,0.01566 -0.46995,0.04699 v 2.459405 z" />
              <path
                 id="path48-9"
                 style="font-style:normal;font-variant:normal;font-weight:900;font-stretch:normal;font-family:'Encode Sans Compressed';-inkscape-font-specification:'Encode Sans Compressed Heavy';text-align:end;text-anchor:end;fill:#ffffff;fill-opacity:1;stroke:none;stroke-width:0.183738px"
                 d="m 354.69481,86.697378 q -1.95813,0 -2.94502,-1.112215 -0.9869,-1.112215 -0.9869,-3.28965 0,-2.177435 0.9869,-3.273985 0.98689,-1.112215 2.94502,-1.112215 1.95812,0 2.94502,1.112215 0.98689,1.09655 0.98689,3.273985 0,2.177435 -0.98689,3.28965 -0.9869,1.112215 -2.94502,1.112215 z m 0,-2.240095 q 0.3133,0 0.50128,-0.06266 0.18798,-0.07832 0.28197,-0.3133 0.10965,-0.234975 0.14098,-0.65793 0.0313,-0.422955 0.0313,-1.12788 0,-0.704925 -0.0313,-1.12788 -0.0313,-0.422955 -0.14098,-0.642265 -0.094,-0.234975 -0.28197,-0.297635 -0.18798,-0.07833 -0.50128,-0.07833 -0.3133,0 -0.50128,0.07833 -0.18798,0.06266 -0.29764,0.297635 -0.094,0.21931 -0.12532,0.642265 -0.0313,0.422955 -0.0313,1.12788 0,0.704925 0.0313,1.12788 0.0313,0.422955 0.12532,0.65793 0.10966,0.234975 0.29764,0.3133 0.18798,0.06266 0.50128,0.06266 z" />
              <path
                 id="path50-7"
                 style="font-style:normal;font-variant:normal;font-weight:900;font-stretch:normal;font-family:'Encode Sans Compressed';-inkscape-font-specification:'Encode Sans Compressed Heavy';text-align:end;text-anchor:end;fill:#ffffff;fill-opacity:1;stroke:none;stroke-width:0.183738px"
                 d="m 363.2792,86.697378 q -1.95812,0 -2.94502,-1.112215 -0.98689,-1.112215 -0.98689,-3.28965 0,-2.177435 0.98689,-3.273985 0.9869,-1.112215 2.94502,-1.112215 1.95813,0 2.94502,1.112215 0.9869,1.09655 0.9869,3.273985 0,2.177435 -0.9869,3.28965 -0.98689,1.112215 -2.94502,1.112215 z m 0,-2.240095 q 0.3133,0 0.50128,-0.06266 0.18798,-0.07832 0.28197,-0.3133 0.10966,-0.234975 0.14099,-0.65793 0.0313,-0.422955 0.0313,-1.12788 0,-0.704925 -0.0313,-1.12788 -0.0313,-0.422955 -0.14099,-0.642265 -0.094,-0.234975 -0.28197,-0.297635 -0.18798,-0.07833 -0.50128,-0.07833 -0.3133,0 -0.50128,0.07833 -0.18798,0.06266 -0.29763,0.297635 -0.094,0.21931 -0.12532,0.642265 -0.0313,0.422955 -0.0313,1.12788 0,0.704925 0.0313,1.12788 0.0313,0.422955 0.12532,0.65793 0.10965,0.234975 0.29763,0.3133 0.18798,0.06266 0.50128,0.06266 z" />
              <path
                 id="path52-3"
                 style="font-style:normal;font-variant:normal;font-weight:900;font-stretch:normal;font-family:'Encode Sans Compressed';-inkscape-font-specification:'Encode Sans Compressed Heavy';text-align:end;text-anchor:end;fill:#ffffff;fill-opacity:1;stroke:none;stroke-width:0.183738px"
                 d="m 371.78527,86.634718 q -1.44118,0 -2.1931,-0.6266 -0.73625,-0.642265 -0.73625,-1.84847 v -3.618615 h -1.14355 v -2.47507 h 1.31586 l 0.39163,-2.53773 2.39674,-0.28197 v 2.8197 h 1.45685 v 2.47507 h -1.44118 v 2.85103 q 0,0.610935 0.17231,0.84591 0.18798,0.21931 0.56394,0.21931 0.3133,0 0.73626,-0.109655 v 2.114775 q -0.65793,0.172315 -1.51951,0.172315 z" />
            </g>
            <rect
               style="color:#000000;overflow:visible;fill:#ffffff;fill-opacity:1;stroke:none;stroke-width:0.531246;stroke-linecap:round;stroke-linejoin:round"
               id="rect941-6"
               width="1.3229166"
               height="21.166666"
               x="371.4899"
               y="65.805748" />
            <rect
               y="71.361992"
               x="360.90656"
               height="11.265603"
               width="10.583334"
               id="rect941-3-1"
               style="color:#000000;overflow:visible;fill:#ffffff;fill-opacity:0;stroke:none;stroke-width:0.531246;stroke-linecap:round;stroke-linejoin:round" />
            <path
               style="fill:none;stroke:#000000;stroke-width:0.183738px;stroke-linecap:butt;stroke-linejoin:miter;stroke-opacity:1"
               d="m 372.15136,76.389081 v 0"
               id="path20447"
               sodipodi:nodetypes="cc" />
          </g>
          <rect
             y="-352.96906"
             x="89.882767"
             height="10.583333"
             width="10.583334"
             id="rect980-5-8-2"
             style="color:#000000;overflow:visible;fill:#ffffff;fill-opacity:0;stroke:none;stroke-width:0.531247;stroke-linecap:round;stroke-linejoin:round"
             transform="rotate(90)" />
          <path
             d="m 372.8128,71.361965 h 10.58334 V 81.945298 H 372.8128 Z"
             style="color:#000000;overflow:visible;fill:#ffffff;fill-opacity:0;stroke:none;stroke-width:0.531247;stroke-linecap:round;stroke-linejoin:round"
             id="rect941-3-6-7-9" />
          <rect
             transform="rotate(90)"
             style="color:#000000;overflow:visible;fill:#ffffff;fill-opacity:0;stroke:none;stroke-width:0.531247;stroke-linecap:round;stroke-linejoin:round"
             id="rect980-5-3-9-3"
             width="10.583334"
             height="10.583333"
             x="52.84116"
             y="-352.96906" />
          <path
             id="rect941-3-6-5-2-1"
             style="color:#000000;overflow:visible;fill:#ffffff;fill-opacity:0;stroke:none;stroke-width:0.531247;stroke-linecap:round;stroke-linejoin:round"
             d="m 317.2503,71.361965 h 10.58333 V 81.945298 H 317.2503 Z" />
        </g>
      </g>
      <g
         aria-label=" 
Installer
Interface "
         id="text4918-9-3"
         style="font-size:14.077px;line-height:0.9;-inkscape-font-specification:sans-serif;text-align:center;letter-spacing:0px;word-spacing:0px;text-anchor:middle;stroke-width:0.264583">
        <path
           d="m 99.58791,181.91505 h 2.74501 v 10.41698 h -2.74501 z"
           style="font-weight:900;font-family:'Encode Sans Compressed';-inkscape-font-specification:'Encode Sans Compressed Heavy';text-align:end;text-anchor:end;fill:#ffffff"
           id="path4312" />
        <path
           d="m 103.62798,184.73045 h 2.25232 l 0.14077,0.81646 h 0.0563 q 0.47862,-0.29562 0.81647,-0.47862 0.33784,-0.19707 0.60531,-0.29561 0.26746,-0.11262 0.50677,-0.14077 0.23931,-0.0422 0.53493,-0.0422 0.78831,0 1.26693,0.56308 0.49269,0.56308 0.49269,1.47808 v 5.70119 h -2.67463 v -4.7158 q 0,-0.39416 -0.15485,-0.549 -0.14077,-0.16893 -0.366,-0.16893 -0.183,0 -0.39415,0.0845 -0.19708,0.0845 -0.40824,0.19707 v 5.15219 h -2.67463 z"
           style="font-weight:900;font-family:'Encode Sans Compressed';-inkscape-font-specification:'Encode Sans Compressed Heavy';text-align:end;text-anchor:end;fill:#ffffff"
           id="path4314" />
        <path
           d="m 113.66488,192.45872 q -0.59123,0 -1.21062,-0.11262 -0.61939,-0.11261 -1.15432,-0.30969 v -1.92855 q 0.45047,0.19708 1.09801,0.32377 0.64754,0.11262 1.2247,0.11262 0.74608,0 0.74608,-0.42231 0,-0.39416 -0.71793,-0.47862 -0.33784,-0.0422 -0.74608,-0.11262 -0.40823,-0.0704 -0.77423,-0.30969 -0.35193,-0.23931 -0.59124,-0.70385 -0.23931,-0.47862 -0.23931,-1.32324 0,-1.25285 0.70385,-1.91447 0.70385,-0.6757 2.04117,-0.6757 0.53493,0 1.18247,0.0845 0.66162,0.0845 1.23877,0.22524 v 1.92855 q -0.35192,-0.0845 -0.61938,-0.1267 -0.25339,-0.0563 -0.46455,-0.0845 -0.21115,-0.0282 -0.39415,-0.0422 -0.16893,-0.0141 -0.35193,-0.0141 -0.87277,0 -0.87277,0.4927 0,0.42231 0.60531,0.47862 0.35193,0.0422 0.78831,0.12669 0.43639,0.0704 0.81647,0.30969 0.39415,0.23931 0.66162,0.70385 0.26746,0.45047 0.26746,1.23878 0,1.23877 -0.83054,1.88632 -0.83055,0.64754 -2.40717,0.64754 z"
           style="font-weight:900;font-family:'Encode Sans Compressed';-inkscape-font-specification:'Encode Sans Compressed Heavy';text-align:end;text-anchor:end;fill:#ffffff"
           id="path4316" />
        <path
           d="m 120.95676,192.43056 q -1.29508,0 -1.97078,-0.56308 -0.66161,-0.57715 -0.66161,-1.66108 v -3.25179 h -1.02763 v -2.22416 h 1.18247 l 0.35193,-2.28048 2.15378,-0.25338 v 2.53386 h 1.30916 v 2.22416 H 120.999 v 2.56202 q 0,0.549 0.15484,0.76015 0.16893,0.19708 0.50677,0.19708 0.28154,0 0.66162,-0.0985 v 1.9004 q -0.59123,0.15484 -1.36547,0.15484 z"
           style="font-weight:900;font-family:'Encode Sans Compressed';-inkscape-font-specification:'Encode Sans Compressed Heavy';text-align:end;text-anchor:end;fill:#ffffff"
           id="path4318" />
        <path
           d="m 124.99686,192.40241 q -0.4927,0 -0.90093,-0.16892 -0.39415,-0.183 -0.68977,-0.4927 -0.28154,-0.30969 -0.45047,-0.732 -0.15484,-0.43639 -0.15484,-0.95724 0,-2.23824 2.75909,-2.40717 l 1.25285,-0.0704 q -0.0141,-0.32377 -0.0704,-0.52085 -0.0422,-0.19708 -0.16893,-0.29562 -0.11261,-0.11261 -0.32377,-0.14077 -0.19708,-0.0422 -0.53492,-0.0422 -0.15485,0 -0.43639,0.0282 -0.28154,0.0141 -0.60531,0.0422 -0.32377,0.0281 -0.61939,0.0704 -0.29562,0.0282 -0.46454,0.0563 l -0.15485,-1.90039 q 0.6757,-0.11262 1.35139,-0.18301 0.68978,-0.0704 1.3514,-0.0704 1.7737,0 2.56201,0.57716 0.78831,0.57715 0.78831,1.85816 v 5.27888 h -2.21009 l -0.183,-0.91501 h -0.14077 q -0.32377,0.45046 -0.84462,0.71793 -0.52085,0.26746 -1.11208,0.26746 z m 1.02762,-1.91447 q 0.15485,0 0.366,-0.0845 0.22523,-0.0845 0.42231,-0.22524 v -1.05577 l -0.66162,0.0704 q -0.38008,0.0422 -0.549,0.19708 -0.15485,0.14077 -0.15485,0.42231 0,0.32377 0.14077,0.50677 0.15485,0.16893 0.43639,0.16893 z"
           style="font-weight:900;font-family:'Encode Sans Compressed';-inkscape-font-specification:'Encode Sans Compressed Heavy';text-align:end;text-anchor:end;fill:#ffffff"
           id="path4320" />
        <path
           d="m 130.62766,180.95781 h 2.67463 v 11.37422 h -2.67463 z"
           style="font-weight:900;font-family:'Encode Sans Compressed';-inkscape-font-specification:'Encode Sans Compressed Heavy';text-align:end;text-anchor:end;fill:#ffffff"
           id="path4322" />
        <path
           d="m 134.48473,180.95781 h 2.67463 v 11.37422 h -2.67463 z"
           style="font-weight:900;font-family:'Encode Sans Compressed';-inkscape-font-specification:'Encode Sans Compressed Heavy';text-align:end;text-anchor:end;fill:#ffffff"
           id="path4324" />
        <path
           d="m 141.6499,192.45872 q -3.57556,0 -3.57556,-3.87118 0,-3.98379 3.58963,-3.98379 1.56255,0 2.2664,0.88685 0.71793,0.88685 0.71793,2.82948 0,0.43639 -0.0141,0.64754 -0.0141,0.21116 -0.0563,0.45047 h -3.82894 q 0.0281,0.33784 0.0845,0.549 0.0704,0.21115 0.183,0.32377 0.1267,0.11262 0.32377,0.15485 0.19708,0.0282 0.47862,0.0282 0.39416,0 1.06985,-0.0985 0.6757,-0.11261 1.44993,-0.28154 l 0.0704,1.92855 q -0.28154,0.0985 -0.61939,0.183 -0.33785,0.0704 -0.70385,0.1267 -0.366,0.0563 -0.74608,0.0845 -0.366,0.0422 -0.68977,0.0422 z m -0.0704,-5.89826 q -0.40823,0 -0.60531,0.26746 -0.183,0.26746 -0.22523,0.99947 h 1.56255 q -0.0282,-0.70385 -0.183,-0.98539 -0.15485,-0.28154 -0.54901,-0.28154 z"
           style="font-weight:900;font-family:'Encode Sans Compressed';-inkscape-font-specification:'Encode Sans Compressed Heavy';text-align:end;text-anchor:end;fill:#ffffff"
           id="path4326" />
        <path
           d="m 145.57738,184.73045 h 2.25232 l 0.14077,1.18246 h 0.11262 q 0.0141,-0.0845 0.21115,-0.25338 0.21116,-0.183 0.4927,-0.38008 0.28154,-0.19708 0.59123,-0.38008 0.32377,-0.183 0.57716,-0.29562 h 0.47862 v 2.46348 h -1.08393 q -0.12669,0.0141 -0.29562,0.0845 -0.16892,0.0563 -0.33785,0.14077 -0.15484,0.0845 -0.29561,0.183 -0.1267,0.0985 -0.16893,0.16892 v 4.68765 h -2.67463 z"
           style="font-weight:900;font-family:'Encode Sans Compressed';-inkscape-font-specification:'Encode Sans Compressed Heavy';text-align:end;text-anchor:end;fill:#ffffff"
           id="path4328" />
        <path
           d="m 94.942501,195.48857 h 2.745015 v 10.41698 h -2.745015 z"
           style="font-weight:900;font-family:'Encode Sans Compressed';-inkscape-font-specification:'Encode Sans Compressed Heavy';text-align:end;text-anchor:end;fill:#ffffff"
           id="path4330" />
        <path
           d="m 98.982574,198.30397 h 2.252316 l 0.14077,0.81647 h 0.0563 q 0.47862,-0.29562 0.81647,-0.47862 0.33785,-0.19708 0.60531,-0.29562 0.26746,-0.11261 0.50677,-0.14077 0.23931,-0.0422 0.53493,-0.0422 0.78831,0 1.26693,0.56308 0.49269,0.56308 0.49269,1.47809 v 5.70118 h -2.67463 v -4.71579 q 0,-0.39416 -0.15485,-0.54901 -0.14077,-0.16892 -0.366,-0.16892 -0.183,0 -0.39415,0.0845 -0.19708,0.0845 -0.40824,0.19708 v 5.15218 h -2.674626 z"
           style="font-weight:900;font-family:'Encode Sans Compressed';-inkscape-font-specification:'Encode Sans Compressed Heavy';text-align:end;text-anchor:end;fill:#ffffff"
           id="path4332" />
        <path
           d="m 110.00486,206.00409 q -1.29508,0 -1.97078,-0.56308 -0.66162,-0.57716 -0.66162,-1.66108 v -3.25179 h -1.02762 v -2.22417 h 1.18247 l 0.35192,-2.28047 2.15379,-0.25339 v 2.53386 h 1.30916 v 2.22417 h -1.29509 v 2.56201 q 0,0.54901 0.15485,0.76016 0.16892,0.19708 0.50677,0.19708 0.28154,0 0.66162,-0.0985 v 1.90039 q -0.59123,0.15485 -1.36547,0.15485 z"
           style="font-weight:900;font-family:'Encode Sans Compressed';-inkscape-font-specification:'Encode Sans Compressed Heavy';text-align:end;text-anchor:end;fill:#ffffff"
           id="path4334" />
        <path
           d="m 115.5512,206.03225 q -3.57556,0 -3.57556,-3.87118 0,-3.98379 3.58963,-3.98379 1.56255,0 2.2664,0.88685 0.71793,0.88685 0.71793,2.82948 0,0.43638 -0.0141,0.64754 -0.0141,0.21115 -0.0563,0.45046 h -3.82894 q 0.0281,0.33785 0.0845,0.54901 0.0704,0.21115 0.183,0.32377 0.12669,0.11261 0.32377,0.15484 0.19708,0.0282 0.47862,0.0282 0.39416,0 1.06985,-0.0985 0.6757,-0.11262 1.44993,-0.28154 l 0.0704,1.92855 q -0.28154,0.0985 -0.61939,0.183 -0.33785,0.0704 -0.70385,0.12669 -0.366,0.0563 -0.74608,0.0845 -0.366,0.0422 -0.68977,0.0422 z m -0.0704,-5.89827 q -0.40823,0 -0.60531,0.26747 -0.183,0.26746 -0.22523,0.99946 h 1.56254 q -0.0282,-0.70385 -0.183,-0.98539 -0.15484,-0.28154 -0.549,-0.28154 z"
           style="font-weight:900;font-family:'Encode Sans Compressed';-inkscape-font-specification:'Encode Sans Compressed Heavy';text-align:end;text-anchor:end;fill:#ffffff"
           id="path4336" />
        <path
           d="m 119.47868,198.30397 h 2.25232 l 0.14077,1.18247 h 0.11261 q 0.0141,-0.0845 0.21116,-0.25339 0.21115,-0.183 0.49269,-0.38007 0.28154,-0.19708 0.59124,-0.38008 0.32377,-0.183 0.57715,-0.29562 h 0.47862 v 2.46347 h -1.08393 q -0.12669,0.0141 -0.29561,0.0845 -0.16893,0.0563 -0.33785,0.14077 -0.15485,0.0845 -0.29562,0.183 -0.12669,0.0985 -0.16892,0.16892 v 4.68764 h -2.67463 z"
           style="font-weight:900;font-family:'Encode Sans Compressed';-inkscape-font-specification:'Encode Sans Compressed Heavy';text-align:end;text-anchor:end;fill:#ffffff"
           id="path4338" />
        <path
           d="m 125.63032,200.52814 h -1.01354 v -2.22417 h 1.02762 v -0.32377 q 0,-0.98539 0.21116,-1.64701 0.22523,-0.67569 0.732,-1.098 0.52085,-0.42231 1.35139,-0.60531 0.84462,-0.19708 2.0834,-0.22524 l 0.16892,1.99894 q -0.56308,0.0281 -0.92908,0.11261 -0.366,0.0704 -0.57716,0.22524 -0.21115,0.15484 -0.29561,0.40823 -0.0845,0.23931 -0.0845,0.60531 v 0.549 h 1.56255 v 2.22417 h -1.56255 v 5.37741 h -2.67463 z"
           style="font-weight:900;font-family:'Encode Sans Compressed';-inkscape-font-specification:'Encode Sans Compressed Heavy';text-align:end;text-anchor:end;fill:#ffffff"
           id="path4340" />
        <path
           d="m 132.24648,205.97594 q -0.4927,0 -0.90093,-0.16893 -0.39415,-0.183 -0.68977,-0.49269 -0.28154,-0.3097 -0.45047,-0.73201 -0.15484,-0.43638 -0.15484,-0.95723 0,-2.23824 2.75909,-2.40717 l 1.25285,-0.0704 q -0.0141,-0.32377 -0.0704,-0.52085 -0.0422,-0.19708 -0.16893,-0.29562 -0.11261,-0.11262 -0.32377,-0.14077 -0.19708,-0.0422 -0.53492,-0.0422 -0.15485,0 -0.43639,0.0282 -0.28154,0.0141 -0.60531,0.0422 -0.32377,0.0282 -0.61939,0.0704 -0.29562,0.0282 -0.46454,0.0563 l -0.15485,-1.9004 q 0.6757,-0.11261 1.35139,-0.183 0.68978,-0.0704 1.3514,-0.0704 1.7737,0 2.56201,0.57715 0.78831,0.57716 0.78831,1.85817 v 5.27887 h -2.21009 l -0.183,-0.915 h -0.14077 q -0.32377,0.45046 -0.84462,0.71792 -0.52085,0.26747 -1.11208,0.26747 z m 1.02762,-1.91447 q 0.15485,0 0.366,-0.0845 0.22523,-0.0845 0.42231,-0.22523 V 202.696 l -0.66162,0.0704 q -0.38008,0.0422 -0.549,0.19708 -0.15485,0.14077 -0.15485,0.42231 0,0.32377 0.14077,0.50677 0.15485,0.16893 0.43639,0.16893 z"
           style="font-weight:900;font-family:'Encode Sans Compressed';-inkscape-font-specification:'Encode Sans Compressed Heavy';text-align:end;text-anchor:end;fill:#ffffff"
           id="path4342" />
        <path
           d="m 141.52322,206.03225 q -1.97078,0 -2.94209,-0.92909 -0.97131,-0.94316 -0.97131,-2.9984 0,-2.05524 0.97131,-2.98432 0.97131,-0.94316 2.94209,-0.94316 0.42231,0 0.81647,0.0704 0.39415,0.0563 0.67569,0.16893 v 2.05524 q -0.68977,-0.15485 -1.18246,-0.15485 -0.83055,0 -1.1684,0.39416 -0.32377,0.39416 -0.32377,1.36547 0,0.98539 0.32377,1.4077 0.33785,0.42231 1.14024,0.42231 0.33785,0 0.63347,-0.0282 0.29561,-0.0422 0.57715,-0.12669 v 2.04117 q -0.28154,0.11261 -0.67569,0.16892 -0.39416,0.0704 -0.81647,0.0704 z"
           style="font-weight:900;font-family:'Encode Sans Compressed';-inkscape-font-specification:'Encode Sans Compressed Heavy';text-align:end;text-anchor:end;fill:#ffffff"
           id="path4344" />
        <path
           d="m 147.22439,206.03225 q -3.57556,0 -3.57556,-3.87118 0,-3.98379 3.58964,-3.98379 1.56254,0 2.26639,0.88685 0.71793,0.88685 0.71793,2.82948 0,0.43638 -0.0141,0.64754 -0.0141,0.21115 -0.0563,0.45046 h -3.82895 q 0.0282,0.33785 0.0845,0.54901 0.0704,0.21115 0.18301,0.32377 0.12669,0.11261 0.32377,0.15484 0.19707,0.0282 0.47861,0.0282 0.39416,0 1.06986,-0.0985 0.67569,-0.11262 1.44993,-0.28154 l 0.0704,1.92855 q -0.28154,0.0985 -0.61939,0.183 -0.33784,0.0704 -0.70385,0.12669 -0.366,0.0563 -0.74608,0.0845 -0.366,0.0422 -0.68977,0.0422 z m -0.0704,-5.89827 q -0.40824,0 -0.60532,0.26747 -0.183,0.26746 -0.22523,0.99946 h 1.56255 q -0.0282,-0.70385 -0.183,-0.98539 -0.15485,-0.28154 -0.549,-0.28154 z"
           style="font-weight:900;font-family:'Encode Sans Compressed';-inkscape-font-specification:'Encode Sans Compressed Heavy';text-align:end;text-anchor:end;fill:#ffffff"
           id="path4346" />
      </g>
      <text
         xml:space="preserve"
         style="font-style:normal;font-weight:normal;font-size:14.077px;line-height:0.9;font-family:sans-serif;-inkscape-font-specification:sans-serif;text-align:center;letter-spacing:0px;word-spacing:0px;writing-mode:lr-tb;text-anchor:middle;fill:#000000;fill-opacity:1;stroke:none;stroke-width:0.264583;stroke-linecap:butt;stroke-linejoin:miter;stroke-miterlimit:4;stroke-dasharray:none;stroke-opacity:1"
         x="150.56064"
         y="308.88504"
         id="text4918-9-3-3"><tspan
           sodipodi:role="line"
           id="tspan4916-4-6-5"
           style="font-style:normal;font-variant:normal;font-weight:900;font-stretch:normal;font-family:'Encode Sans Compressed';-inkscape-font-specification:'Encode Sans Compressed Heavy';text-align:end;text-anchor:end;fill:#ffffff;stroke:none;stroke-width:0.264583;stroke-miterlimit:4;stroke-dasharray:none;stroke-opacity:1"
           x="150.56064"
           y="308.88504"> </tspan><tspan
           sodipodi:role="line"
           style="font-style:normal;font-variant:normal;font-weight:900;font-stretch:normal;font-family:'Encode Sans Compressed';-inkscape-font-specification:'Encode Sans Compressed Heavy';text-align:end;text-anchor:end;fill:#ffffff;stroke:none;stroke-width:0.264583;stroke-miterlimit:4;stroke-dasharray:none;stroke-opacity:1"
           x="150.56064"
           y="322.45859"
           id="tspan11977-7-7-6">Installer</tspan><tspan
           sodipodi:role="line"
           style="font-style:normal;font-variant:normal;font-weight:900;font-stretch:normal;font-family:'Encode Sans Compressed';-inkscape-font-specification:'Encode Sans Compressed Heavy';text-align:end;text-anchor:end;fill:#ffffff;stroke:none;stroke-width:0.264583;stroke-miterlimit:4;stroke-dasharray:none;stroke-opacity:1"
           x="152.86926"
           y="336.0321"
           id="tspan11979-8-5-2">Interface </tspan></text>
    </g>
    <rect
       style="fill:#00ff00;fill-opacity:0;stroke-width:3.175;stroke-linejoin:round;paint-order:stroke fill markers"
       id="rect46958"
       width="190.5"
       height="79.375"
       x="1.5099033e-14"
       y="150.8125"
       inkscape:export-filename="target-disk-mode.png"
       inkscape:export-xdpi="96"
       inkscape:export-ydpi="96" />
  </g>
</svg>
