<?xml version="1.0" encoding="UTF-8" standalone="no"?>
<!-- Created with Inkscape (http://www.inkscape.org/) -->

<svg
   width="720"
   height="300"
   viewBox="0 0 190.5 79.375"
   version="1.1"
   id="svg5"
   inkscape:version="1.1 (c68e22c387, 2021-05-23)"
   sodipodi:docname="installer.svg"
   xmlns:inkscape="http://www.inkscape.org/namespaces/inkscape"
   xmlns:sodipodi="http://sodipodi.sourceforge.net/DTD/sodipodi-0.dtd"
   xmlns="http://www.w3.org/2000/svg"
   xmlns:svg="http://www.w3.org/2000/svg">
  <sodipodi:namedview
     id="namedview7"
     pagecolor="#000000"
     bordercolor="#00ff00"
     borderopacity="1"
     inkscape:pageshadow="2"
     inkscape:pageopacity="0"
     inkscape:pagecheckerboard="false"
     inkscape:document-units="px"
     showgrid="false"
     units="px"
     inkscape:showpageshadow="false"
     borderlayer="true"
     inkscape:zoom="0.08"
     inkscape:cx="475"
     inkscape:cy="143.75"
     inkscape:current-layer="layer1"
     showguides="true"
     inkscape:guide-bbox="true"
     showborder="false"
     fit-margin-top="0"
     fit-margin-left="0"
     fit-margin-right="0"
     fit-margin-bottom="0"
     inkscape:window-width="1920"
     inkscape:window-height="1051"
     inkscape:window-x="1680"
     inkscape:window-y="29"
     inkscape:window-maximized="0">
    <sodipodi:guide
       position="95.25,39.6875"
       orientation="-1,0"
       id="guide20391"
       inkscape:label=""
       inkscape:locked="false"
       inkscape:color="rgb(0,0,255)" />
    <sodipodi:guide
       position="95.25,39.6875"
       orientation="0,1"
       id="guide20393"
       inkscape:label=""
       inkscape:locked="false"
       inkscape:color="rgb(0,0,255)" />
  </sodipodi:namedview>
  <defs
     id="defs2" />
  <g
     inkscape:label="Layer 1"
     inkscape:groupmode="layer"
     id="layer1"
     transform="translate(0,-150.8125)">
    <g
       id="g20389"
       transform="translate(16.632137,-1.5144614)">
      <g
         id="g1129-0-0"
         style="font-size:15.665px;line-height:0.8;font-family:sans-serif;-inkscape-font-specification:sans-serif;text-align:center;letter-spacing:0px;word-spacing:0px;writing-mode:lr-tb;text-anchor:middle;display:inline;fill:#ffffff;stroke:#000000;stroke-width:0.183738px;stroke-linecap:butt;stroke-linejoin:miter;stroke-opacity:1"
         transform="matrix(1.4399999,0,0,1.4399999,-490.38746,44.115769)">
        <g
           id="g963-62-2"
           transform="translate(22.99116,26.318324)"
           style="stroke-width:0.183738px">
          <g
             id="g1010-6-3"
             style="stroke-width:0.183738px"
             transform="matrix(1.0000022,0,0,1.0000022,-7.2568704e-4,-1.4063148e-4)">
            <g
               style="font-size:15.665px;line-height:0.8;font-family:sans-serif;-inkscape-font-specification:sans-serif;text-align:center;letter-spacing:0px;word-spacing:0px;writing-mode:lr-tb;text-anchor:middle;fill:#ffffff;stroke:#000000;stroke-width:0.183738px;stroke-linecap:butt;stroke-linejoin:miter;stroke-opacity:1"
               id="text102-1-7"
               transform="scale(0.96598235,1.0352156)"
               aria-label="Tow- Boot">
              <path
                 id="path38-5"
                 style="font-style:normal;font-variant:normal;font-weight:900;font-stretch:normal;font-family:'Encode Sans Compressed';-inkscape-font-specification:'Encode Sans Compressed Heavy';text-align:end;text-anchor:end;fill:#ffffff;fill-opacity:1;stroke:none;stroke-width:0.183738px"
                 d="m 342.06885,63.995122 h -2.5534 v -2.60039 h 8.17713 v 2.60039 h -2.56906 v 8.99171 h -3.05467 z" />
              <path
                 id="path40-9"
                 style="font-style:normal;font-variant:normal;font-weight:900;font-stretch:normal;font-family:'Encode Sans Compressed';-inkscape-font-specification:'Encode Sans Compressed Heavy';text-align:end;text-anchor:end;fill:#ffffff;fill-opacity:1;stroke:none;stroke-width:0.183738px"
                 d="m 350.96655,73.159147 q -1.95812,0 -2.94502,-1.112215 -0.98689,-1.112215 -0.98689,-3.28965 0,-2.177435 0.98689,-3.273985 0.9869,-1.112215 2.94502,-1.112215 1.95813,0 2.94502,1.112215 0.9869,1.09655 0.9869,3.273985 0,2.177435 -0.9869,3.28965 -0.98689,1.112215 -2.94502,1.112215 z m 0,-2.240095 q 0.3133,0 0.50128,-0.06266 0.18798,-0.07833 0.28197,-0.3133 0.10966,-0.234975 0.14099,-0.65793 0.0313,-0.422955 0.0313,-1.12788 0,-0.704925 -0.0313,-1.12788 -0.0313,-0.422955 -0.14099,-0.642265 -0.094,-0.234975 -0.28197,-0.297635 -0.18798,-0.07833 -0.50128,-0.07833 -0.3133,0 -0.50128,0.07833 -0.18798,0.06266 -0.29763,0.297635 -0.094,0.21931 -0.12532,0.642265 -0.0313,0.422955 -0.0313,1.12788 0,0.704925 0.0313,1.12788 0.0313,0.422955 0.12532,0.65793 0.10965,0.234975 0.29763,0.3133 0.18798,0.06266 0.50128,0.06266 z" />
              <path
                 id="path42-2"
                 style="font-style:normal;font-variant:normal;font-weight:900;font-stretch:normal;font-family:'Encode Sans Compressed';-inkscape-font-specification:'Encode Sans Compressed Heavy';text-align:end;text-anchor:end;fill:#ffffff;fill-opacity:1;stroke:none;stroke-width:0.183738px"
                 d="m 355.36836,64.590392 v -0.06266 h 2.67872 l 0.48561,4.621175 0.094,0.861575 h 0.20365 l 0.10965,-0.861575 0.73626,-4.621175 h 2.86669 l 0.73626,4.621175 0.10965,0.861575 h 0.20365 l 0.094,-0.861575 0.48561,-4.621175 h 2.67872 v 0.06266 l -1.50384,8.39644 h -3.35231 l -0.70493,-4.32354 -0.0783,-0.861575 h -0.20365 l -0.0783,0.861575 -0.70493,4.32354 h -3.35231 z" />
              <path
                 id="path44-2"
                 style="font-style:normal;font-variant:normal;font-weight:900;font-stretch:normal;font-family:'Encode Sans Compressed';-inkscape-font-specification:'Encode Sans Compressed Heavy';text-align:end;text-anchor:end;fill:#ffffff;fill-opacity:1;stroke:none;stroke-width:0.183738px"
                 d="m 367.69671,67.519747 h 5.29477 v 2.16177 h -5.29477 z" />
              <path
                 id="path46-8"
                 style="font-style:normal;font-variant:normal;font-weight:900;font-stretch:normal;font-family:'Encode Sans Compressed';-inkscape-font-specification:'Encode Sans Compressed Heavy';text-align:end;text-anchor:end;fill:#ffffff;fill-opacity:1;stroke:none;stroke-width:0.183738px"
                 d="m 344.7632,86.681713 q -0.75192,0 -1.53517,-0.06266 -0.76758,-0.04699 -1.5195,-0.172315 v -11.43545 q 1.98945,-0.234975 3.30531,-0.234975 2.49074,0 3.61862,0.798915 1.14354,0.798915 1.14354,2.53773 0,1.94246 -1.66049,2.41241 v 0.06266 q 1.94246,0.43862 1.94246,2.72571 0,3.367975 -5.29477,3.367975 z m 0.53261,-2.31842 q 0.79892,0 1.20621,-0.3133 0.42295,-0.3133 0.42295,-0.90857 0,-0.736255 -0.36029,-1.018225 -0.3603,-0.297635 -1.3002,-0.297635 h -0.76758 v 2.47507 q 0.14098,0.03133 0.3133,0.04699 0.17231,0.01566 0.48561,0.01566 z m -0.047,-4.73083 q 0.78325,0 1.08088,-0.28197 0.3133,-0.28197 0.3133,-1.03389 0,-1.22187 -1.28453,-1.22187 -0.17231,0 -0.39162,0.03133 -0.20365,0.01566 -0.46995,0.04699 v 2.459405 z" />
              <path
                 id="path48-9"
                 style="font-style:normal;font-variant:normal;font-weight:900;font-stretch:normal;font-family:'Encode Sans Compressed';-inkscape-font-specification:'Encode Sans Compressed Heavy';text-align:end;text-anchor:end;fill:#ffffff;fill-opacity:1;stroke:none;stroke-width:0.183738px"
                 d="m 354.69481,86.697378 q -1.95813,0 -2.94502,-1.112215 -0.9869,-1.112215 -0.9869,-3.28965 0,-2.177435 0.9869,-3.273985 0.98689,-1.112215 2.94502,-1.112215 1.95812,0 2.94502,1.112215 0.98689,1.09655 0.98689,3.273985 0,2.177435 -0.98689,3.28965 -0.9869,1.112215 -2.94502,1.112215 z m 0,-2.240095 q 0.3133,0 0.50128,-0.06266 0.18798,-0.07832 0.28197,-0.3133 0.10965,-0.234975 0.14098,-0.65793 0.0313,-0.422955 0.0313,-1.12788 0,-0.704925 -0.0313,-1.12788 -0.0313,-0.422955 -0.14098,-0.642265 -0.094,-0.234975 -0.28197,-0.297635 -0.18798,-0.07833 -0.50128,-0.07833 -0.3133,0 -0.50128,0.07833 -0.18798,0.06266 -0.29764,0.297635 -0.094,0.21931 -0.12532,0.642265 -0.0313,0.422955 -0.0313,1.12788 0,0.704925 0.0313,1.12788 0.0313,0.422955 0.12532,0.65793 0.10966,0.234975 0.29764,0.3133 0.18798,0.06266 0.50128,0.06266 z" />
              <path
                 id="path50-7"
                 style="font-style:normal;font-variant:normal;font-weight:900;font-stretch:normal;font-family:'Encode Sans Compressed';-inkscape-font-specification:'Encode Sans Compressed Heavy';text-align:end;text-anchor:end;fill:#ffffff;fill-opacity:1;stroke:none;stroke-width:0.183738px"
                 d="m 363.2792,86.697378 q -1.95812,0 -2.94502,-1.112215 -0.98689,-1.112215 -0.98689,-3.28965 0,-2.177435 0.98689,-3.273985 0.9869,-1.112215 2.94502,-1.112215 1.95813,0 2.94502,1.112215 0.9869,1.09655 0.9869,3.273985 0,2.177435 -0.9869,3.28965 -0.98689,1.112215 -2.94502,1.112215 z m 0,-2.240095 q 0.3133,0 0.50128,-0.06266 0.18798,-0.07832 0.28197,-0.3133 0.10966,-0.234975 0.14099,-0.65793 0.0313,-0.422955 0.0313,-1.12788 0,-0.704925 -0.0313,-1.12788 -0.0313,-0.422955 -0.14099,-0.642265 -0.094,-0.234975 -0.28197,-0.297635 -0.18798,-0.07833 -0.50128,-0.07833 -0.3133,0 -0.50128,0.07833 -0.18798,0.06266 -0.29763,0.297635 -0.094,0.21931 -0.12532,0.642265 -0.0313,0.422955 -0.0313,1.12788 0,0.704925 0.0313,1.12788 0.0313,0.422955 0.12532,0.65793 0.10965,0.234975 0.29763,0.3133 0.18798,0.06266 0.50128,0.06266 z" />
              <path
                 id="path52-3"
                 style="font-style:normal;font-variant:normal;font-weight:900;font-stretch:normal;font-family:'Encode Sans Compressed';-inkscape-font-specification:'Encode Sans Compressed Heavy';text-align:end;text-anchor:end;fill:#ffffff;fill-opacity:1;stroke:none;stroke-width:0.183738px"
                 d="m 371.78527,86.634718 q -1.44118,0 -2.1931,-0.6266 -0.73625,-0.642265 -0.73625,-1.84847 v -3.618615 h -1.14355 v -2.47507 h 1.31586 l 0.39163,-2.53773 2.39674,-0.28197 v 2.8197 h 1.45685 v 2.47507 h -1.44118 v 2.85103 q 0,0.610935 0.17231,0.84591 0.18798,0.21931 0.56394,0.21931 0.3133,0 0.73626,-0.109655 v 2.114775 q -0.65793,0.172315 -1.51951,0.172315 z" />
            </g>
            <rect
               style="color:#000000;overflow:visible;fill:#ffffff;fill-opacity:1;stroke:none;stroke-width:0.531246;stroke-linecap:round;stroke-linejoin:round"
               id="rect941-6"
               width="1.3229166"
               height="21.166666"
               x="371.4899"
               y="65.805748" />
            <rect
               y="71.361992"
               x="360.90656"
               height="11.265603"
               width="10.583334"
               id="rect941-3-1"
               style="color:#000000;overflow:visible;fill:#ffffff;fill-opacity:0;stroke:none;stroke-width:0.531246;stroke-linecap:round;stroke-linejoin:round" />
            <path
               style="fill:none;stroke:#000000;stroke-width:0.183738px;stroke-linecap:butt;stroke-linejoin:miter;stroke-opacity:1"
               d="m 372.15136,76.389081 v 0"
               id="path20447"
               sodipodi:nodetypes="cc" />
          </g>
          <rect
             y="-352.96906"
             x="89.882767"
             height="10.583333"
             width="10.583334"
             id="rect980-5-8-2"
             style="color:#000000;overflow:visible;fill:#ffffff;fill-opacity:0;stroke:none;stroke-width:0.531247;stroke-linecap:round;stroke-linejoin:round"
             transform="rotate(90)" />
          <path
             d="m 372.8128,71.361965 h 10.58334 V 81.945298 H 372.8128 Z"
             style="color:#000000;overflow:visible;fill:#ffffff;fill-opacity:0;stroke:none;stroke-width:0.531247;stroke-linecap:round;stroke-linejoin:round"
             id="rect941-3-6-7-9" />
          <rect
             transform="rotate(90)"
             style="color:#000000;overflow:visible;fill:#ffffff;fill-opacity:0;stroke:none;stroke-width:0.531247;stroke-linecap:round;stroke-linejoin:round"
             id="rect980-5-3-9-3"
             width="10.583334"
             height="10.583333"
             x="52.84116"
             y="-352.96906" />
          <path
             id="rect941-3-6-5-2-1"
             style="color:#000000;overflow:visible;fill:#ffffff;fill-opacity:0;stroke:none;stroke-width:0.531247;stroke-linecap:round;stroke-linejoin:round"
             d="m 317.2503,71.361965 h 10.58333 V 81.945298 H 317.2503 Z" />
        </g>
      </g>
      <text
         xml:space="preserve"
         style="font-style:normal;font-weight:normal;font-size:14.077px;line-height:0.9;font-family:sans-serif;-inkscape-font-specification:sans-serif;text-align:center;letter-spacing:0px;word-spacing:0px;writing-mode:lr-tb;text-anchor:middle;fill:#000000;fill-opacity:1;stroke:#46267e;stroke-width:0.264583;stroke-linecap:butt;stroke-linejoin:miter;stroke-miterlimit:4;stroke-dasharray:none;stroke-opacity:1"
         x="134.77477"
         y="183.95291"
         id="text4918-9"><tspan
           sodipodi:role="line"
           id="tspan4916-4"
           style="font-style:normal;font-variant:normal;font-weight:900;font-stretch:normal;font-family:'Encode Sans Compressed';-inkscape-font-specification:'Encode Sans Compressed Heavy';text-align:end;text-anchor:end;fill:#ffffff;stroke:#46267e;stroke-width:0.264583;stroke-miterlimit:4;stroke-dasharray:none;stroke-opacity:1"
           x="134.77477"
           y="183.95291"> </tspan><tspan
           sodipodi:role="line"
           style="font-style:normal;font-variant:normal;font-weight:900;font-stretch:normal;font-family:'Encode Sans Compressed';-inkscape-font-specification:'Encode Sans Compressed Heavy';text-align:end;text-anchor:end;fill:#ffffff;stroke:#46267e;stroke-width:0.264583;stroke-miterlimit:4;stroke-dasharray:none;stroke-opacity:1"
           x="134.77477"
           y="196.62221"
           id="tspan11977-7">Installer</tspan><tspan
           sodipodi:role="line"
           style="font-style:normal;font-variant:normal;font-weight:900;font-stretch:normal;font-family:'Encode Sans Compressed';-inkscape-font-specification:'Encode Sans Compressed Heavy';text-align:end;text-anchor:end;fill:#ffffff;stroke:#46267e;stroke-width:0.264583;stroke-miterlimit:4;stroke-dasharray:none;stroke-opacity:1"
           x="139.6756"
           y="209.2915"
           id="tspan11979-8"> </tspan></text>
    </g>
    <rect
       style="fill:#00ff00;fill-opacity:0;stroke-width:3.175;stroke-linejoin:round;paint-order:stroke fill markers"
       id="rect46958"
       width="190.5"
       height="79.375"
       x="1.5099033e-14"
       y="150.8125"
       inkscape:export-filename="target-disk-mode.png"
       inkscape:export-xdpi="96"
       inkscape:export-ydpi="96" />
  </g>
</svg>
